<?xml version='1.0' encoding='UTF-8'?>
<!-- Created with Inkscape (http://www.inkscape.org/) and export_objects.py -->
<svg xmlns:cc="http://creativecommons.org/ns#" xmlns:dc="http://purl.org/dc/elements/1.1/" xmlns:inkscape="http://www.inkscape.org/namespaces/inkscape" xmlns:rdf="http://www.w3.org/1999/02/22-rdf-syntax-ns#" xmlns:sodipodi="http://sodipodi.sourceforge.net/DTD/sodipodi-0.dtd" xmlns:xlink="http://www.w3.org/1999/xlink" xmlns="http://www.w3.org/2000/svg" version="1.1" inkscape:version="0.92.3 (unknown)" id="svg2" viewBox="0 0 376.02232 52.727764" height="52.727764px" width="376.02232px" sodipodi:docname="comparison00004.svg"><sodipodi:namedview inkscape:snap-midpoints="true" inkscape:window-maximized="1" inkscape:window-y="24" inkscape:window-x="65" inkscape:window-height="1176" inkscape:window-width="1855" fit-margin-bottom="0" fit-margin-right="0" fit-margin-left="0" fit-margin-top="0" inkscape:bbox-paths="false" inkscape:snap-nodes="true" inkscape:object-nodes="true" inkscape:snap-intersection-paths="true" inkscape:snap-others="false" inkscape:bbox-nodes="false" inkscape:guide-bbox="true" showguides="true" inkscape:snap-bbox-midpoints="false" inkscape:snap-center="false" inkscape:snap-bbox-edge-midpoints="false" inkscape:snap-bbox="true" inkscape:snap-object-midpoints="true" units="px" showgrid="false" inkscape:current-layer="layer7" inkscape:document-units="mm" inkscape:cy="333.20076" inkscape:cx="550.21458" inkscape:zoom="1" inkscape:pageshadow="2" inkscape:pageopacity="0.0" borderopacity="1" bordercolor="#b63aaf" pagecolor="#ffffff" id="base" inkscape:showpageshadow="false" inkscape:object-paths="true" inkscape:snap-global="false">
    <inkscape:grid type="xygrid" id="grid4136" units="mm" spacingx="17.716534" spacingy="17.716534" empspacing="10" originx="-27.230924" originy="-952.85102"/>
  </sodipodi:namedview>
  <metadata id="metadata7">
    <rdf:RDF>
      <cc:Work rdf:about="">
        <dc:format>image/svg+xml</dc:format>
        <dc:type rdf:resource="http://purl.org/dc/dcmitype/StillImage"/>
        <dc:title/>
      </cc:Work>
    </rdf:RDF>
  </metadata>
  <g inkscape:groupmode="layer" inkscape:label="comparison" transform="matrix(1.000000,0.000000,0.000000,1.000000,-294.435495,-567.577308)"><g id="g1684" inkscape:label="00004">
      <g id="g1679">
        <path style="color:#000000;clip-rule:nonzero;display:inline;overflow:visible;visibility:visible;opacity:1;isolation:auto;mix-blend-mode:normal;color-interpolation:sRGB;color-interpolation-filters:linearRGB;solid-color:#000000;solid-opacity:1;fill:none;fill-opacity:1;fill-rule:nonzero;stroke:#800080;stroke-width:0.35433069;stroke-linecap:butt;stroke-linejoin:miter;stroke-miterlimit:4.6527195;stroke-dasharray:none;stroke-dashoffset:0;stroke-opacity:1;color-rendering:auto;image-rendering:auto;shape-rendering:auto;text-rendering:auto;enable-background:accumulate" d="m 662.04073,620.12787 8.23988,0 0,-48.13477 -4.48437,-4.17383 -5.03516,4.6836 0,13.10156 -16.11523,0 0,-13.10156 -5.0332,-4.6836 -5.03516,4.6836 0,13.10156 -16.13672,0 0,-13.10156 -5.0332,-4.6836 -5.03516,4.6836 0,13.10156 -16.11523,0 0,-13.10156 -5.03321,-4.6836 -5.03515,4.6836 0,13.10156 -16.13672,0 0,-13.10156 -5.0332,-4.6836 -5.03516,4.6836 0,13.10156 -16.11523,0 0,-13.10156 -5.03321,-4.6836 -5.03515,4.6836 0,13.10156 -16.13672,0 0,-13.10156 -5.03321,-4.6836 -5.03515,4.6836 0,13.10156 -16.11524,0 0,-13.10156 -5.0332,-4.6836 -5.03516,4.6836 0,13.10156 -16.13672,0 0,-13.10156 -5.0332,-4.6836 -5.03515,4.6836 0,13.10156 -16.11524,0 0,-13.10156 -5.0332,-4.6836 -5.03516,4.6836 0,13.10156 -16.13672,0 0,-13.10156 -5.0332,-4.6836 -5.03516,4.6836 0,13.10156 -16.11328,0 0,-13.10156 -5.0332,-4.6836 -5.03516,4.6836 0,13.10156 -16.13672,0 0,-13.10156 -5.0332,-4.6836 -5.03711,4.6836 0,13.10156 -16.11328,0 0,-13.10156 -5.0332,-4.6836 -5.03516,4.6836 0,13.10156 -16.13672,0 0,-13.10156 -5.0332,-4.6836 -4.46485,4.15235 0,48.15625" id="path10048" inkscape:connector-curvature="0"/>
        <path style="color:#000000;clip-rule:nonzero;display:inline;overflow:visible;visibility:visible;opacity:1;isolation:auto;mix-blend-mode:normal;color-interpolation:sRGB;color-interpolation-filters:linearRGB;solid-color:#000000;solid-opacity:1;fill:none;fill-opacity:1;fill-rule:nonzero;stroke:#800080;stroke-width:0.35433069;stroke-linecap:butt;stroke-linejoin:miter;stroke-miterlimit:4.6527195;stroke-dasharray:none;stroke-dashoffset:0;stroke-opacity:1;color-rendering:auto;image-rendering:auto;shape-rendering:auto;text-rendering:auto;enable-background:accumulate" d="m 296.21584,620.12787 7.89485,0 0,-28.48633 16.13672,0 0,18.23047 10.06836,0 0,-18.23047 16.11328,0 0,18.23047 10.07031,0 0,-18.23047 16.13672,0 0,18.23047 10.06836,0 0,-18.23047 16.11328,0 0,28.48633 10.06836,0 0,-28.48633 16.13672,0 0,18.23047 10.06836,0 0,-18.23047 16.11524,0 0,18.23047 10.06835,0 0,-18.23047 16.13672,0 0,18.23047 10.06836,0 0,-18.23047 16.11524,0 0,28.48633 10.06836,0 0,-28.48633 16.13672,0 0,18.23047 10.06836,0 0,-18.23047 16.11523,0 0,18.23047 10.06836,0 0,-18.23047 16.13672,0 0,18.23047 10.06836,0 0,-18.23047 16.11523,0 0,18.23047 10.06836,0 0,-18.23047 16.13672,0 0,18.23047 10.06836,0 0,-18.23047 16.11523,0 0,28.48633" id="rect7614-6-6" inkscape:connector-curvature="0"/>
      </g>
    </g>
    </g></svg>
