<?xml version='1.0' encoding='UTF-8'?>
<!-- Created with Inkscape (http://www.inkscape.org/) and export_objects.py -->
<svg xmlns:cc="http://creativecommons.org/ns#" xmlns:dc="http://purl.org/dc/elements/1.1/" xmlns:inkscape="http://www.inkscape.org/namespaces/inkscape" xmlns:rdf="http://www.w3.org/1999/02/22-rdf-syntax-ns#" xmlns:sodipodi="http://sodipodi.sourceforge.net/DTD/sodipodi-0.dtd" xmlns:xlink="http://www.w3.org/1999/xlink" xmlns="http://www.w3.org/2000/svg" version="1.1" inkscape:version="0.92.3 (unknown)" id="svg2" viewBox="0 0 273.64144 151.03208" height="151.03208px" width="273.64144px" sodipodi:docname="comparison00021.svg"><sodipodi:namedview inkscape:snap-midpoints="true" inkscape:window-maximized="1" inkscape:window-y="24" inkscape:window-x="65" inkscape:window-height="1176" inkscape:window-width="1855" fit-margin-bottom="0" fit-margin-right="0" fit-margin-left="0" fit-margin-top="0" inkscape:bbox-paths="false" inkscape:snap-nodes="true" inkscape:object-nodes="true" inkscape:snap-intersection-paths="true" inkscape:snap-others="false" inkscape:bbox-nodes="false" inkscape:guide-bbox="true" showguides="true" inkscape:snap-bbox-midpoints="false" inkscape:snap-center="false" inkscape:snap-bbox-edge-midpoints="false" inkscape:snap-bbox="true" inkscape:snap-object-midpoints="true" units="px" showgrid="false" inkscape:current-layer="layer7" inkscape:document-units="mm" inkscape:cy="333.20076" inkscape:cx="550.21458" inkscape:zoom="1" inkscape:pageshadow="2" inkscape:pageopacity="0.0" borderopacity="1" bordercolor="#b63aaf" pagecolor="#ffffff" id="base" inkscape:showpageshadow="false" inkscape:object-paths="true" inkscape:snap-global="false">
    <inkscape:grid type="xygrid" id="grid4136" units="mm" spacingx="17.716534" spacingy="17.716534" empspacing="10" originx="-27.230924" originy="-952.85102"/>
  </sodipodi:namedview>
  <metadata id="metadata7">
    <rdf:RDF>
      <cc:Work rdf:about="">
        <dc:format>image/svg+xml</dc:format>
        <dc:type rdf:resource="http://purl.org/dc/dcmitype/StillImage"/>
        <dc:title/>
      </cc:Work>
    </rdf:RDF>
  </metadata>
  <g inkscape:groupmode="layer" inkscape:label="comparison" transform="matrix(1.000000,0.000000,0.000000,1.000000,0.000017,-440.732958)"><g id="g1671" inkscape:label="00021">
      <path inkscape:connector-curvature="0" id="path11335" d="m 108.27407,591.58784 58.21166,0 0,-10.65236 106.97851,0 0,-26.23241 0,-21.06251 -10.43165,0 0,-59.32811" style="display:inline;color:#000000;clip-rule:nonzero;overflow:visible;visibility:visible;opacity:1;isolation:auto;mix-blend-mode:normal;color-interpolation:sRGB;color-interpolation-filters:linearRGB;solid-color:#000000;solid-opacity:1;fill:none;fill-opacity:1;fill-rule:nonzero;stroke:#1a1a1a;stroke-width:0.35433069;stroke-linecap:butt;stroke-linejoin:miter;stroke-miterlimit:4.6527195;stroke-dasharray:none;stroke-dashoffset:0;stroke-opacity:1;color-rendering:auto;image-rendering:auto;shape-rendering:auto;text-rendering:auto;enable-background:accumulate"/>
      <path inkscape:connector-curvature="0" id="path11333" d="m 265.46156,474.31245 8.00268,0 0,-25.10939 0,-1 0,-7.29296 -273.287082,0 -1e-5,10e-6 0,7.29296 0,1 0,24.60546 9.2549882,0" style="display:inline;color:#000000;clip-rule:nonzero;overflow:visible;visibility:visible;opacity:1;isolation:auto;mix-blend-mode:normal;color-interpolation:sRGB;color-interpolation-filters:linearRGB;solid-color:#000000;solid-opacity:1;fill:none;fill-opacity:1;fill-rule:nonzero;stroke:#1a1a1a;stroke-width:0.35433069;stroke-linecap:butt;stroke-linejoin:miter;stroke-miterlimit:4.6527195;stroke-dasharray:none;stroke-dashoffset:0;stroke-opacity:1;color-rendering:auto;image-rendering:auto;shape-rendering:auto;text-rendering:auto;enable-background:accumulate"/>
      <path inkscape:connector-curvature="0" id="path4847-3" d="m 10.829488,473.80853 0,59.32812 -10.65234,0 0,21.56642 0,26.23241 106.978502,0 0,10.65236" style="display:inline;color:#000000;clip-rule:nonzero;overflow:visible;visibility:visible;opacity:1;isolation:auto;mix-blend-mode:normal;color-interpolation:sRGB;color-interpolation-filters:linearRGB;solid-color:#000000;solid-opacity:1;fill:none;fill-opacity:1;fill-rule:nonzero;stroke:#1a1a1a;stroke-width:0.35433069;stroke-linecap:butt;stroke-linejoin:miter;stroke-miterlimit:4.6527195;stroke-dasharray:none;stroke-dashoffset:0;stroke-opacity:1;color-rendering:auto;image-rendering:auto;shape-rendering:auto;text-rendering:auto;enable-background:accumulate"/>
      <path inkscape:connector-curvature="0" id="rect4903-1-6-2" d="m 55.37091,478.51052 14.126586,0 c 1.96299,0 3.54331,1.58032 3.54331,3.54331 l 0,14.12658 c 0,1.963 -1.58032,3.54331 -3.54331,3.54331 l -14.126586,0 c -1.962994,0 -3.54331,-1.58031 -3.54331,-3.54331 l 0,-14.12658 c 0,-1.96299 1.580316,-3.54331 3.54331,-3.54331 z" style="color:#000000;clip-rule:nonzero;display:inline;overflow:visible;visibility:visible;opacity:1;isolation:auto;mix-blend-mode:normal;color-interpolation:sRGB;color-interpolation-filters:linearRGB;solid-color:#000000;solid-opacity:1;fill:none;fill-opacity:1;fill-rule:nonzero;stroke:#008000;stroke-width:0.35433069;stroke-linecap:butt;stroke-linejoin:miter;stroke-miterlimit:4.6527195;stroke-dasharray:none;stroke-dashoffset:0;stroke-opacity:1;color-rendering:auto;image-rendering:auto;shape-rendering:auto;text-rendering:auto;enable-background:accumulate"/>
      <path inkscape:connector-curvature="0" id="rect4903-76-4" d="m 55.37091,506.85532 14.126586,0 c 1.96299,0 3.54331,1.58032 3.54331,3.54331 l 0,14.12659 c 0,1.96299 -1.58032,3.54331 -3.54331,3.54331 l -14.126586,0 c -1.962993,0 -3.54331,-1.58032 -3.54331,-3.54331 l 0,-14.12659 c 0,-1.96299 1.580317,-3.54331 3.54331,-3.54331 z" style="color:#000000;clip-rule:nonzero;display:inline;overflow:visible;visibility:visible;opacity:1;isolation:auto;mix-blend-mode:normal;color-interpolation:sRGB;color-interpolation-filters:linearRGB;solid-color:#000000;solid-opacity:1;fill:none;fill-opacity:1;fill-rule:nonzero;stroke:#008000;stroke-width:0.35433069;stroke-linecap:butt;stroke-linejoin:miter;stroke-miterlimit:4.6527195;stroke-dasharray:none;stroke-dashoffset:0;stroke-opacity:1;color-rendering:auto;image-rendering:auto;shape-rendering:auto;text-rendering:auto;enable-background:accumulate"/>
      <path inkscape:connector-curvature="0" id="rect4991-0-9-5" d="m 58.893526,538.72175 35.43307,0 0,10.62992 -35.43307,0 z" style="color:#000000;clip-rule:nonzero;display:inline;overflow:visible;visibility:visible;opacity:1;isolation:auto;mix-blend-mode:normal;color-interpolation:sRGB;color-interpolation-filters:linearRGB;solid-color:#000000;solid-opacity:1;fill:none;fill-opacity:1;fill-rule:nonzero;stroke:#008000;stroke-width:0.35433069;stroke-linecap:butt;stroke-linejoin:miter;stroke-miterlimit:4.6527195;stroke-dasharray:none;stroke-dashoffset:0;stroke-opacity:1;color-rendering:auto;image-rendering:auto;shape-rendering:auto;text-rendering:auto;enable-background:accumulate"/>
      <path inkscape:connector-curvature="0" id="rect4903-1-7-0-4" d="m 83.718306,478.51052 14.12658,0 c 1.96299,0 3.543314,1.58032 3.543314,3.54331 l 0,14.12658 c 0,1.96299 -1.580324,3.54331 -3.543314,3.54331 l -14.12658,0 c -1.96299,0 -3.54331,-1.58032 -3.54331,-3.54331 l 0,-14.12658 c 0,-1.96299 1.58032,-3.54331 3.54331,-3.54331 z" style="color:#000000;clip-rule:nonzero;display:inline;overflow:visible;visibility:visible;opacity:1;isolation:auto;mix-blend-mode:normal;color-interpolation:sRGB;color-interpolation-filters:linearRGB;solid-color:#000000;solid-opacity:1;fill:none;fill-opacity:1;fill-rule:nonzero;stroke:#008000;stroke-width:0.35433069;stroke-linecap:butt;stroke-linejoin:miter;stroke-miterlimit:4.6527195;stroke-dasharray:none;stroke-dashoffset:0;stroke-opacity:1;color-rendering:auto;image-rendering:auto;shape-rendering:auto;text-rendering:auto;enable-background:accumulate"/>
      <path inkscape:connector-curvature="0" id="rect4903-7-7-2" d="m 83.718306,506.85532 14.12658,0 c 1.963,0 3.543314,1.58032 3.543314,3.54331 l 0,14.12658 c 0,1.96299 -1.580314,3.54331 -3.543314,3.54331 l -14.12658,0 c -1.96299,0 -3.54331,-1.58032 -3.54331,-3.54331 l 0,-14.12658 c 0,-1.96299 1.58032,-3.54331 3.54331,-3.54331 z" style="color:#000000;clip-rule:nonzero;display:inline;overflow:visible;visibility:visible;opacity:1;isolation:auto;mix-blend-mode:normal;color-interpolation:sRGB;color-interpolation-filters:linearRGB;solid-color:#000000;solid-opacity:1;fill:none;fill-opacity:1;fill-rule:nonzero;stroke:#008000;stroke-width:0.35433069;stroke-linecap:butt;stroke-linejoin:miter;stroke-miterlimit:4.6527195;stroke-dasharray:none;stroke-dashoffset:0;stroke-opacity:1;color-rendering:auto;image-rendering:auto;shape-rendering:auto;text-rendering:auto;enable-background:accumulate"/>
      <path inkscape:connector-curvature="0" id="rect4903-0-2" d="m 175.79729,506.85532 14.12658,0 c 1.963,0 3.54331,1.58032 3.54331,3.54331 l 0,14.12659 c 0,1.96299 -1.58031,3.54331 -3.54331,3.54331 l -14.12658,0 c -1.96299,0 -3.54331,-1.58032 -3.54331,-3.54331 l 0,-14.12659 c 0,-1.96299 1.58032,-3.54331 3.54331,-3.54331 z" style="color:#000000;clip-rule:nonzero;display:inline;overflow:visible;visibility:visible;opacity:1;isolation:auto;mix-blend-mode:normal;color-interpolation:sRGB;color-interpolation-filters:linearRGB;solid-color:#000000;solid-opacity:1;fill:none;fill-opacity:1;fill-rule:nonzero;stroke:#008000;stroke-width:0.35433069;stroke-linecap:butt;stroke-linejoin:miter;stroke-miterlimit:4.6527195;stroke-dasharray:none;stroke-dashoffset:0;stroke-opacity:1;color-rendering:auto;image-rendering:auto;shape-rendering:auto;text-rendering:auto;enable-background:accumulate"/>
      <path inkscape:connector-curvature="0" id="rect4903-1-0-2" d="m 175.79729,478.51052 14.12658,0 c 1.963,0 3.54331,1.58032 3.54331,3.54331 l 0,14.12658 c 0,1.963 -1.58031,3.54331 -3.54331,3.54331 l -14.12658,0 c -1.96299,0 -3.54331,-1.58031 -3.54331,-3.54331 l 0,-14.12658 c 0,-1.96299 1.58032,-3.54331 3.54331,-3.54331 z" style="color:#000000;clip-rule:nonzero;display:inline;overflow:visible;visibility:visible;opacity:1;isolation:auto;mix-blend-mode:normal;color-interpolation:sRGB;color-interpolation-filters:linearRGB;solid-color:#000000;solid-opacity:1;fill:none;fill-opacity:1;fill-rule:nonzero;stroke:#008000;stroke-width:0.35433069;stroke-linecap:butt;stroke-linejoin:miter;stroke-miterlimit:4.6527195;stroke-dasharray:none;stroke-dashoffset:0;stroke-opacity:1;color-rendering:auto;image-rendering:auto;shape-rendering:auto;text-rendering:auto;enable-background:accumulate"/>
      <path inkscape:connector-curvature="0" id="rect4991-0-3-2" d="m 179.3199,538.72175 35.43307,0 0,10.62992 -35.43307,0 z" style="color:#000000;clip-rule:nonzero;display:inline;overflow:visible;visibility:visible;opacity:1;isolation:auto;mix-blend-mode:normal;color-interpolation:sRGB;color-interpolation-filters:linearRGB;solid-color:#000000;solid-opacity:1;fill:none;fill-opacity:1;fill-rule:nonzero;stroke:#008000;stroke-width:0.35433069;stroke-linecap:butt;stroke-linejoin:miter;stroke-miterlimit:4.6527195;stroke-dasharray:none;stroke-dashoffset:0;stroke-opacity:1;color-rendering:auto;image-rendering:auto;shape-rendering:auto;text-rendering:auto;enable-background:accumulate"/>
      <path inkscape:connector-curvature="0" id="rect4903-1-7-05-5" d="m 204.14469,478.51052 14.12658,0 c 1.96299,0 3.54331,1.58032 3.54331,3.54331 l 0,14.12658 c 0,1.96299 -1.58032,3.54331 -3.54331,3.54331 l -14.12658,0 c -1.963,0 -3.54331,-1.58032 -3.54331,-3.54331 l 0,-14.12658 c 0,-1.96299 1.58031,-3.54331 3.54331,-3.54331 z" style="color:#000000;clip-rule:nonzero;display:inline;overflow:visible;visibility:visible;opacity:1;isolation:auto;mix-blend-mode:normal;color-interpolation:sRGB;color-interpolation-filters:linearRGB;solid-color:#000000;solid-opacity:1;fill:none;fill-opacity:1;fill-rule:nonzero;stroke:#008000;stroke-width:0.35433069;stroke-linecap:butt;stroke-linejoin:miter;stroke-miterlimit:4.6527195;stroke-dasharray:none;stroke-dashoffset:0;stroke-opacity:1;color-rendering:auto;image-rendering:auto;shape-rendering:auto;text-rendering:auto;enable-background:accumulate"/>
      <path inkscape:connector-curvature="0" id="rect4903-7-3-6" d="m 204.14469,506.85532 14.12658,0 c 1.96299,0 3.54331,1.58032 3.54331,3.54331 l 0,14.12658 c 0,1.96299 -1.58032,3.54331 -3.54331,3.54331 l -14.12658,0 c -1.963,0 -3.54331,-1.58032 -3.54331,-3.54331 l 0,-14.12658 c 0,-1.96299 1.58031,-3.54331 3.54331,-3.54331 z" style="color:#000000;clip-rule:nonzero;display:inline;overflow:visible;visibility:visible;opacity:1;isolation:auto;mix-blend-mode:normal;color-interpolation:sRGB;color-interpolation-filters:linearRGB;solid-color:#000000;solid-opacity:1;fill:none;fill-opacity:1;fill-rule:nonzero;stroke:#008000;stroke-width:0.35433069;stroke-linecap:butt;stroke-linejoin:miter;stroke-miterlimit:4.6527195;stroke-dasharray:none;stroke-dashoffset:0;stroke-opacity:1;color-rendering:auto;image-rendering:auto;shape-rendering:auto;text-rendering:auto;enable-background:accumulate"/>
    </g>
    </g></svg>
