<svg enable-background="new 0 0 1147.592 1397.27" height="339.235px" id="svg2" version="1.1" viewBox="0 0 511.822 339.235" width="511.822px" x="0px" xml:space="preserve" xmlns="http://www.w3.org/2000/svg" xmlns:xlink="http://www.w3.org/1999/xlink" y="0px"><rect class="bin" fill="none" height="339.235" stroke="#010101" transform="translate(-0.0 -0.0)" width="511.822"/><g transform="translate(54.520000000000074 569.324) rotate(180.0)"/><g transform="translate(710.773 254.60999999999996) rotate(90.0)"/><g transform="translate(546.508 207.611) rotate(90.0)"><rect fill="none" height="40.393" stroke="#010101" width="17.01" x="1037.906" y="618.179"/></g><g transform="translate(214.39800000000008 678.633) rotate(180.0)"/><g transform="translate(-278.275 -316.58000000000004) rotate(0.0)"/><g transform="translate(40.072000000000074 917.118) rotate(180.0)"/><g transform="translate(-53.949 -256.95399999999995) rotate(0.0)"/><g transform="translate(-440.508 -256.547) rotate(0.0)"/><g transform="translate(-470.613 -397.996) rotate(0.0)"/><g transform="translate(134.0670000000001 1037.5729999999999) rotate(180.0)"/><g transform="translate(572.966 -191.60299999999995) rotate(90.0)"/><g transform="translate(73.08000000000008 1058.2559999999999) rotate(180.0)"/><g transform="translate(101.14500000000008 737.3289999) rotate(180.0)"><polygon fill="none" points="722.641,923.609 715.562,914.734  718.092,903.668 728.318,898.742 738.541,903.668 741.07,914.734 733.988,923.609 " stroke="#010101" stroke-miterlimit="10"/></g><g transform="translate(636.235 223.04699999999997) rotate(90.0)"/><g transform="translate(458.069 -106.75800000000002) rotate(90.0)"><polygon fill="none" points="886.057,227.863 883.723,254.986  901.1,257.063 914.325,251.346 911.729,234.5 " stroke="#010101" stroke-miterlimit="10"/></g><g transform="translate(-428.0249999999999 633.1890000000001) rotate(270.0)"><polygon fill="none" points="928.898,687.098 956.514,715.105 1081.471,708.365 1003.559,683.466 960.465,664.794 " stroke="#010101"/></g><g transform="translate(-923.2979999999999 940.5320000000002) rotate(270.0)"><polygon fill="none" points="863.262,854.79 854.715,856.367  849.074,849.754 851.98,841.564 860.525,839.987 866.162,846.6 " stroke="#010101" stroke-miterlimit="10"/></g><g transform="translate(-604.309 44.59000000000003) rotate(0.0)"><polygon fill="none" points="467.944,756.569 472.294,760.049  450.385,763.763 450.385,745.479 " stroke="#010101" stroke-miterlimit="10"/></g><g transform="translate(663.2940000000001 580.1709999999999) rotate(180.0)"><polygon fill="none" points="1120.651,289.075 1113.574,280.198  1116.104,269.133 1126.329,264.207 1136.552,269.133 1139.081,280.198 1132,289.075 " stroke="#010101" stroke-miterlimit="10"/></g><g transform="translate(-900.1739999999999 1017.6350000000001) rotate(270.0)"><polygon fill="none" points="957.764,819.118 950.686,810.241  953.213,799.176 963.439,794.249 973.662,799.176 976.191,810.241 969.111,819.118 " stroke="#010101" stroke-miterlimit="10"/><polygon class=" hole" fill="none" points="913.523,795.681 913.523,806.381  926.176,806.686 926.75,796.848 " stroke="#010101" stroke-miterlimit="10"/></g><g transform="translate(-404.9009999999999 1036.3020000000001) rotate(270.0)"><polygon fill="none" points="977.528,377.779 1019.57,378.283  1026.906,351.877 1015.936,331.124 1004.533,333.907 987.663,314.47 955.571,340.693 " stroke="#010101" stroke-miterlimit="10"/><polygon class=" hole" fill="none" points="913.775,344.033 906.7,335.156  909.226,324.091 919.452,319.165 929.679,324.091 932.204,335.156 925.126,344.033 " stroke="#010101" stroke-miterlimit="10"/></g><g transform="translate(-779.841 -208.79499999999996) rotate(0.0)"><rect fill="none" height="5.188" stroke="#010101" width="29.564" x="883.67" y="684.395"/><rect class=" hole" fill="none" height="18.155" stroke="#010101" width="30.912" x="797.979" y="671.427"/></g><g transform="translate(51.979000000000056 458.068) rotate(180.0)"><polygon fill="none" points="978.783,280.731 995.188,252.316  1011.596,280.731 " stroke="#010101" stroke-miterlimit="10"/></g><g transform="translate(-155.559 -219.70500000000004) rotate(0.0)"><rect class=" hole" fill="none" height="17.637" stroke="#010101" width="25.963" x="916.535" y="655.978"/></g><g transform="translate(148.13999990000005 573.065) rotate(180.0)"><polygon fill="none" points="896.377,356.575 887.831,358.156  882.19,351.543 885.096,343.35 893.642,341.776 899.282,348.389 " stroke="#010101" stroke-miterlimit="10"/></g><g transform="translate(-681.412 67.40800000000002) rotate(0.0)"/><g transform="translate(-836.42 -490.26699999999994) rotate(0.0)"><path d="M780.734,14.617c0.077,2.311-1.617,4.16-4.313,4.16c-2.388,0-4.082-1.849-4.082-4.16c0-2.388,1.771-4.236,4.236-4.236   C779.117,10.38,780.734,12.229,780.734,14.617z M773.187,62.373V25.092h6.777v37.281H773.187z" fill="none" stroke="#010101"/></g><g transform="translate(331.60099999999994 -543.5269999999999) rotate(90.0)"><polygon class=" hole" fill="none" points="487.134,633.494 484.8,660.617  502.177,662.693 515.402,656.977 512.807,640.131 " stroke="#010101" stroke-miterlimit="10"/></g><g transform="translate(109.72700000000007 902.489) rotate(180.0)"><polygon class=" hole" fill="none" points="1076.412,265.639 1076.412,276.339  1089.064,276.643 1089.639,266.806 " stroke="#010101" stroke-miterlimit="10"/></g><g transform="translate(-179.45399999999987 1178.667) rotate(270.0)"/><g transform="translate(926.7500000000001 806.6859999999999) rotate(180.0)"><path d="M832.42,42.192h0.154c0.924-1.31,2.233-2.927,3.312-4.237l10.938-12.863h8.164L840.585,40.42l16.406,21.953h-8.241   l-12.864-17.87l-3.466,3.852v14.019h-6.701V7.685h6.701V42.192z" fill="none" stroke="#010101"/></g><g transform="translate(-856.944 -185.97799999999995) rotate(0.0)"/><g transform="translate(167.33499999999995 -590.526) rotate(90.0)"/><g transform="translate(-425.8179999999998 1340.198) rotate(270.0)"/><g transform="translate(1012.535 299.45999999999987) rotate(180.0)"><polygon class=" hole" fill="none" points="562.764,814.303 555.686,805.426  558.213,794.359 568.439,789.434 578.662,794.359 581.191,805.426 574.111,814.303 " stroke="#010101" stroke-miterlimit="10"/></g><g transform="translate(685.5069999 236.923) rotate(90.0)"><polygon fill="none" points="68.73,730.111 73.08,733.591  51.17,737.305 51.17,719.021 " stroke="#010101" stroke-miterlimit="10"/></g><g transform="translate(-566.9609999999998 1370.3029999999999) rotate(270.0)"/><g transform="translate(413.69899999999996 -752.0579999) rotate(90.0)"/><g transform="translate(63.14299999999995 -478.703) rotate(90.0)"><polygon fill="none" points="676.149,23 616.756,23 616.756,1 558.443,34.667 616.756,68.333 616.756,46.333 676.149,46.333 " stroke="#010101"/></g><g transform="translate(668.248 -1.70900000000006) rotate(90.0)"><polygon class=" hole" fill="none" points="678.4,900.174 678.4,910.874  691.053,911.178 691.627,901.341 " stroke="#010101" stroke-miterlimit="10"/></g><g transform="translate(-1076.412 62.59200010000001) rotate(0.0)"/><g transform="translate(63.14399999999995 -407.68399999999997) rotate(90.0)"><path d="M912.762,7.685h6.778v23.262h0.154c1.078-1.926,2.772-3.62,4.853-4.775c2.002-1.156,4.391-1.926,6.932-1.926   c5.007,0,13.018,3.081,13.018,15.944v22.184h-6.778V40.96c0-6.008-2.233-11.092-8.627-11.092c-4.39,0-7.856,3.081-9.089,6.778   c-0.385,0.924-0.462,1.925-0.462,3.235v22.492h-6.778V7.685z" fill="none" stroke="#010101"/></g><g transform="translate(-665.99 630.1620000000001) rotate(270.0)"/><g transform="translate(63.142999999999944 -656.0989999999999) rotate(90.0)"><polygon fill="none" points="996.531,179.454 966.451,208.826  979.936,232.686 1002.366,239.603 1008.463,229.574 1034.137,231.389 1038.285,190.151 " stroke="#010101" stroke-miterlimit="10"/></g><g transform="translate(-473.625 386.3470000000001) rotate(270.0)"><polygon fill="none" points="741.307,428.338 734.229,419.461  736.757,408.396 746.983,403.469 757.206,408.396 759.735,419.461 752.654,428.338 " stroke="#010101" stroke-miterlimit="10"/></g><g transform="translate(749.664 -194.04599989999997) rotate(90.0)"><polygon fill="none" points="1057.909,602.939 1049.363,604.521  1043.723,597.907 1046.628,589.714 1055.174,588.14 1060.814,594.753 " stroke="#010101" stroke-miterlimit="10"/></g><g transform="translate(-168.314 -279.53999999999996) rotate(0.0)"><polygon fill="none" points="1056.186,161.831 1047.101,207.851  1113.574,214.531 1129.568,185.702 " stroke="#010101" stroke-miterlimit="10"/></g><g transform="translate(-555.686 -475.068) rotate(0.0)"><path d="M817.784,60.986c-1.771,0.925-5.7,2.157-10.707,2.157c-11.246,0-18.563-7.626-18.563-19.026   c0-11.477,7.856-19.795,20.027-19.795c4.005,0,7.548,1.001,9.397,1.925l-1.541,5.238c-1.617-0.924-4.159-1.771-7.856-1.771   c-8.55,0-13.172,6.316-13.172,14.096c0,8.627,5.546,13.942,12.94,13.942c3.852,0,6.394-1.001,8.318-1.849L817.784,60.986z" fill="none" stroke="#010101"/></g><g transform="translate(-487.758 -116.62799999999999) rotate(0.0)"><polygon fill="none" points="819.203,253.042 855.715,283.383  900.449,283.383 900.449,306.334 819.203,306.334 " stroke="#010101" stroke-miterlimit="10"/></g><g transform="translate(584.203 489.318) rotate(180.0)"><polygon fill="none" points="437.837,615.43 439.287,622.109  420.28,622.626 420.28,604.341 " stroke="#010101" stroke-miterlimit="10"/><polygon class=" hole" fill="none" points="87.919,607.036 85.585,634.159  102.962,636.235 116.188,630.519 113.592,613.673 " stroke="#010101" stroke-miterlimit="10"/></g><g transform="translate(279.9560000000001 1003.304) rotate(180.0)"/><g transform="translate(515.4020000000002 972.7289999999999) rotate(180.0)"><polygon fill="none" points="705.242,936.159 696.697,937.736  691.053,931.123 693.961,922.933 702.504,921.353 708.145,927.966 " stroke="#010101" stroke-miterlimit="10"/></g><g transform="translate(622.646 -131.01600000000002) rotate(90.0)"/><g transform="translate(500.3590000000001 763.7869999999999) rotate(180.0)"><rect fill="none" height="40.392" stroke="#010101" width="17.01" x="687.32" y="653.708"/></g><g transform="translate(592.604 -373.501) rotate(90.0)"><polygon fill="none" points="1073.741,295.981 1078.093,299.46  1056.186,303.18 1056.186,284.897 " stroke="#010101" stroke-miterlimit="10"/><polygon class=" hole" fill="none" points="678.741,291.165 683.093,294.645  661.185,298.364 661.185,280.081 " stroke="#010101" stroke-miterlimit="10"/><polygon class=" hole" fill="none" points="604.309,283.947 604.309,294.645  617.535,294.389 617.535,285.114 " stroke="#010101" stroke-miterlimit="10"/><polygon class=" hole" fill="none" points="999.309,288.763 999.309,299.46  1012.535,299.204 1012.535,289.93 " stroke="#010101" stroke-miterlimit="10"/></g><g transform="translate(923.609 -401.83500000000004) rotate(90.0)"/><g transform="translate(-718.574 54.97500000000002) rotate(0.0)"/><g transform="translate(210.00100000000006 482.446) rotate(180.0)"><polygon class=" hole" fill="none" points="869.536,320.597 869.536,331.291  882.19,331.601 882.762,321.764 " stroke="#010101" stroke-miterlimit="10"/></g><g transform="translate(548.2660000000001 717.7149999999999) rotate(180.0)"><polygon fill="none" points="900.502,834.515 904.854,837.995  882.945,841.715 882.945,823.432 " stroke="#010101" stroke-miterlimit="10"/></g><g transform="translate(759.735 742.704) rotate(180.0)"/><g transform="translate(-919.4319999999999 889.3909999000002) rotate(270.0)"><polygon fill="none" points="993.52,818.805 963.439,848.177  976.924,872.036 999.355,878.953 1005.451,868.925 1031.125,870.739 1035.273,829.502 " stroke="#010101" stroke-miterlimit="10"/><polygon class=" hole" fill="none" points="940.365,831.666 931.818,833.243  926.176,826.63 929.084,818.441 937.627,816.859 943.266,823.473 " stroke="#010101" stroke-miterlimit="10"/><polygon class=" hole" fill="none" points="658.174,796.366 649.09,842.386  715.562,849.066 731.557,820.237 " stroke="#010101" stroke-miterlimit="10"/><polygon class=" hole" fill="none" points="836.42,818.805 836.42,829.502  849.646,829.247 849.646,819.972 " stroke="#010101" stroke-miterlimit="10"/></g><g transform="translate(465.58699999999993 -310.471) rotate(90.0)"/><g transform="translate(679.8140000000001 606.7269999999999) rotate(180.0)"/><g transform="translate(932.204 658.3999999999999) rotate(180.0)"><polygon class=" hole" fill="none" points="598.52,813.989 568.439,843.361  581.924,867.221 604.355,874.138 610.451,864.109 636.125,865.924 640.273,824.687 " stroke="#010101" stroke-miterlimit="10"/></g><g transform="translate(537.646 -580.378) rotate(90.0)"/><g transform="translate(694.8570000000001 815.669) rotate(180.0)"/><g transform="translate(-196.401 -184.70299999999997) rotate(0.0)"/><g transform="translate(937.736 -368.90999999999997) rotate(90.0)"/><g transform="translate(-883.67 -350.34799999999996) rotate(0.0)"><polygon class=" hole" fill="none" points="583.783,275.915 600.188,247.5  616.596,275.915 " stroke="#010101" stroke-miterlimit="10"/></g><g transform="translate(298.38599999999997 -371.91999999999996) rotate(90.0)"><polygon fill="none" points="580.771,915.266 597.178,886.851  613.584,915.266 " stroke="#010101" stroke-miterlimit="10"/></g><g transform="translate(-604.3409999999999 759.5149999000001) rotate(270.0)"><polygon class=" hole" fill="none" points="708.253,296.809 699.708,298.386  694.064,291.773 696.973,283.582 705.516,282.002 711.155,288.615 " stroke="#010101" stroke-miterlimit="10"/></g><g transform="translate(-154.89899999999983 1292.931) rotate(270.0)"><polygon fill="none" points="1078.067,402.694 1078.067,413.395  1090.719,413.699 1091.293,403.861 " stroke="#010101" stroke-miterlimit="10"/></g><g transform="translate(-950.686 -479.88300000000004) rotate(0.0)"><polygon fill="none" points="903.513,195.164 907.864,198.645  885.956,202.364 885.956,184.081 " stroke="#010101" stroke-miterlimit="10"/></g><g transform="translate(442.46299999999997 -387.57499989999997) rotate(90.0)"><polygon fill="none" points="843.732,707.215 824.023,739.374 878.861,742.484 917.553,724.85 867.072,727.962 864.234,705.139 " stroke="#010101"/><polygon class=" hole" fill="none" points="98.24,735.748 89.694,737.329  84.053,730.716 86.958,722.521 95.504,720.948 101.145,727.562 " stroke="#010101" stroke-miterlimit="10"/><polygon class=" hole" fill="none" points="470.613,726.229 470.613,736.922  483.268,737.231 483.839,727.395 " stroke="#010101" stroke-miterlimit="10"/></g><g transform="translate(-450.385 -424.528) rotate(0.0)"/><g transform="translate(-262.876 -136.466) rotate(0.0)"/><g transform="translate(1093.736 904.7639999999999) rotate(180.0)"/><g transform="translate(-10.456999999999834 1208.5520000000001) rotate(270.0)"/><g transform="translate(-839.9869999999999 1188.3090000000002) rotate(270.0)"><polygon fill="none" points="447.82,473.495 428.112,505.654 482.95,508.766 521.641,491.13 471.161,494.242 468.322,471.419 " stroke="#010101"/></g><g transform="translate(-487.033 -268.76) rotate(0.0)"/><g transform="translate(-1113.574 50.160000000000025) rotate(0.0)"><polygon class=" hole" fill="none" points="601.531,174.639 571.451,204.011  584.936,227.87 607.366,234.787 613.463,224.759 639.137,226.573 643.285,185.336 " stroke="#010101" stroke-miterlimit="10"/></g><g transform="translate(659.903 -180.64599990000002) rotate(90.0)"/><g transform="translate(899.282 358.1559999999999) rotate(180.0)"><polygon fill="none" points="980.735,499.406 1017.247,529.747  1061.98,529.747 1061.98,552.698 980.735,552.698 " stroke="#010101" stroke-miterlimit="10"/><polygon class=" hole" fill="none" points="901.184,537.646 894.106,528.769  896.635,517.703 906.861,512.777 917.084,517.703 919.613,528.769 912.532,537.646 " stroke="#010101" stroke-miterlimit="10"/></g><g transform="translate(-852.086 122.21799999999999) rotate(0.0)"/><g transform="translate(551.771 -547.453) rotate(90.0)"><polygon fill="none" points="599.735,501.612 636.247,531.953  680.981,531.953 680.981,554.904 599.735,554.904 " stroke="#010101" stroke-miterlimit="10"/></g><g transform="translate(257.06299999999993 -575.09) rotate(90.0)"><polygon fill="none" points="66.82,475.701 47.112,507.86 101.95,510.972 140.64,493.336 90.161,496.448 87.322,473.625 " stroke="#010101"/></g><g transform="translate(193.89299999999994 -607.042) rotate(90.0)"><polygon class=" hole" fill="none" points="322.514,668.248 315.438,659.371  317.965,648.306 328.192,643.38 338.415,648.306 340.944,659.371 333.863,668.248 " stroke="#010101" stroke-miterlimit="10"/><polygon class=" hole" fill="none" points="278.275,644.812 278.275,655.512  290.927,655.815 291.501,645.979 " stroke="#010101" stroke-miterlimit="10"/></g><g transform="translate(-926.176 -494.00800000000004) rotate(0.0)"><path d="M746.843,60.679c-2.465,1.232-7.395,2.465-13.711,2.465c-14.635,0-25.65-9.243-25.65-26.266   c0-16.252,11.016-27.268,27.113-27.268c6.471,0,10.553,1.387,12.324,2.311l-1.617,5.469c-2.542-1.232-6.162-2.157-10.476-2.157   c-12.17,0-20.258,7.78-20.258,21.414c0,12.709,7.317,20.874,19.95,20.874c4.082,0,8.241-0.848,10.938-2.157L746.843,60.679z" fill="none" stroke="#010101"/></g><g transform="translate(234.78699999999998 -304.04999999999995) rotate(90.0)"/><g transform="translate(640.2730000000001 874.1379999999999) rotate(180.0)"><polygon fill="none" points="1053.174,801.182 1044.09,847.201  1110.562,853.882 1126.557,825.053 " stroke="#010101" stroke-miterlimit="10"/></g><g transform="translate(1030.7059999 463.38099999999986) rotate(180.0)"><polygon fill="none" points="854.273,544.551 858.625,548.03  836.717,551.75 836.717,533.467 " stroke="#010101" stroke-miterlimit="10"/></g><g transform="translate(-588.1399999999998 1382.958) rotate(270.0)"/><g transform="translate(-447.27999999999986 938.9700000000001) rotate(270.0)"><polygon class=" hole" fill="none" points="697.067,404.901 697.067,415.601  709.719,415.905 710.293,406.067 " stroke="#010101" stroke-miterlimit="10"/></g><g transform="translate(1075.857 813.463) rotate(180.0)"><polygon class=" hole" fill="none" points="856.944,514.209 856.944,524.909  869.597,525.213 870.171,515.376 " stroke="#010101" stroke-miterlimit="10"/></g><g transform="translate(-588.4189999999999 969.0750000000002) rotate(270.0)"/><g transform="translate(-541.004 588.1980000000001) rotate(270.0)"><polygon fill="none" points="1103.253,301.624 1094.708,303.201  1089.064,296.588 1091.973,288.398 1100.516,286.817 1106.155,293.431 " stroke="#010101" stroke-miterlimit="10"/></g><g transform="translate(-661.1849999 40.8710001) rotate(0.0)"><polygon class=" hole" fill="none" points="420.28,658.673 456.792,689.014  501.526,689.014 501.526,711.965 420.28,711.965 " stroke="#010101" stroke-miterlimit="10"/><polygon class=" hole" fill="none" points="21.066,632.215 57.578,662.556  102.312,662.556 102.312,685.507 21.066,685.507 " stroke="#010101" stroke-miterlimit="10"/><polygon class=" hole" fill="none" points="180.646,659.903 197.051,631.488  213.458,659.903 " stroke="#010101" stroke-miterlimit="10"/><polygon class=" hole" fill="none" points="275.604,675.153 279.956,678.633  258.047,682.354 258.047,664.069 " stroke="#010101" stroke-miterlimit="10"/><polygon class=" hole" fill="none" points="201.171,667.936 201.171,678.633  214.398,678.377 214.398,669.104 " stroke="#010101" stroke-miterlimit="10"/><polygon class=" hole" fill="none" points="305.116,680.797 296.571,682.374  290.927,675.761 293.835,667.57 302.378,665.99 308.018,672.604 " stroke="#010101" stroke-miterlimit="10"/></g><g transform="translate(-423.87299999999976 1429.9540000000002) rotate(270.0)"><polygon fill="none" points="758.061,626.35 800.104,626.854  807.438,600.447 796.468,579.694 785.065,582.478 768.195,563.04 736.104,589.264 " stroke="#010101" stroke-miterlimit="10"/><polygon class=" hole" fill="none" points="105.375,574.337 109.727,577.817  87.819,581.537 87.819,563.254 " stroke="#010101" stroke-miterlimit="10"/><polygon class=" hole" fill="none" points="517.611,561.961 517.611,572.661  530.264,572.966 530.838,563.128 " stroke="#010101" stroke-miterlimit="10"/></g><g transform="translate(303.20099999999996 -766.92) rotate(90.0)"><polygon fill="none" points="1027.805,461.804 1019.259,463.381  1013.618,456.768 1016.523,448.578 1025.069,447.001 1030.706,453.613 " stroke="#010101" stroke-miterlimit="10"/></g><g transform="translate(450.93499999999995 -349.16099999999994) rotate(90.0)"><polygon fill="none" points="684.045,443.734 688.396,447.215  666.488,450.935 666.488,432.651 " stroke="#010101" stroke-miterlimit="10"/></g><g transform="translate(-919.4319999999999 997.4090000000001) rotate(270.0)"/><g transform="translate(-838.0609999999999 1155.4260000000002) rotate(270.0)"><rect class=" hole" fill="none" height="25.868" stroke="#010101" width="47.904" x="720.844" y="653.708"/></g><g transform="translate(455.862 -402.0659999) rotate(90.0)"><polygon fill="none" points="960.774,179.768 953.696,170.891  956.225,159.825 966.451,154.899 976.674,159.825 979.203,170.891 972.122,179.768 " stroke="#010101" stroke-miterlimit="10"/></g><g transform="translate(551.7499999 -836.717) rotate(90.0)"><polygon fill="none" points="666.589,476.434 664.255,503.557  681.632,505.633 694.857,499.916 692.262,483.07 " stroke="#010101" stroke-miterlimit="10"/></g><g transform="translate(871.217 679.0839999999998) rotate(180.0)"><polygon fill="none" points="1104.908,438.68 1096.362,440.257  1090.719,433.644 1093.627,425.454 1102.17,423.873 1107.811,430.486 " stroke="#010101" stroke-miterlimit="10"/></g><g transform="translate(488.17299999999994 -479.582) rotate(90.0)"><rect fill="none" height="17.633" stroke="#010101" width="17.004" x="995.375" y="649.237"/></g><g transform="translate(907.864 523.3159999999999) rotate(180.0)"><rect class=" hole" fill="none" height="17.637" stroke="#010101" width="25.963" x="184.038" y="464.809"/></g><g transform="translate(216.99499999999995 -498.97399989999997) rotate(90.0)"><rect fill="none" height="40.393" stroke="#010101" width="17.01" x="305.408" y="427.01"/></g><g transform="translate(386.83500000000004 452.87799999999993) rotate(180.0)"><polygon fill="none" points="866.867,350.939 871.217,354.418  849.308,358.132 849.308,339.849 " stroke="#010101" stroke-miterlimit="10"/></g><g transform="translate(904.8540000000002 1162.667) rotate(180.0)"><rect fill="none" height="17.634" stroke="#010101" width="17.004" x="644.789" y="684.767"/></g><g transform="translate(1035.273 878.9529999999999) rotate(180.0)"><polygon class=" hole" fill="none" points="578.312,722.627 605.928,750.635 730.885,743.895 652.973,718.995 609.879,700.323 " stroke="#010101"/><rect class=" hole" fill="none" height="17.636" stroke="#010101" width="25.963" x="565.949" y="691.507"/><polygon class=" hole" fill="none" points="545.365,716.138 536.818,717.715  531.176,711.102 534.084,702.912 542.627,701.331 548.266,707.944 " stroke="#010101" stroke-miterlimit="10"/><polygon class=" hole" fill="none" points="115.638,723.206 108.563,714.329  111.088,703.264 121.315,698.338 131.542,703.264 134.067,714.329 126.989,723.206 " stroke="#010101" stroke-miterlimit="10"/><polygon class=" hole" fill="none" points="71.399,699.77 71.399,710.464  84.053,710.773 84.625,700.938 " stroke="#010101" stroke-miterlimit="10"/></g><g transform="translate(591.9119999000001 709.1429998999998) rotate(180.0)"><polygon fill="none" points="497.454,762.206 488.908,763.787  483.268,757.174 486.173,748.98 494.719,747.406 500.359,754.02 " stroke="#010101" stroke-miterlimit="10"/></g><g transform="translate(-179.45399999999984 1305.6860000000001) rotate(270.0)"/><g transform="translate(521.6410000000001 810.654) rotate(180.0)"/><g transform="translate(631.9059999 648.8889999999999) rotate(180.0)"><polygon fill="none" points="467.35,621.07 458.804,622.646  453.163,616.034 456.068,607.845 464.614,606.268 470.251,612.88 " stroke="#010101" stroke-miterlimit="10"/></g><g transform="translate(-1010.84 -265.26099999999997) rotate(0.0)"><polygon class=" hole" fill="none" points="779.841,537.333 779.841,548.03  793.067,547.775 793.067,538.5 " stroke="#010101" stroke-miterlimit="10"/></g><g transform="translate(-445.07399999999984 1319.9700000000003) rotate(270.0)"><polygon class=" hole" fill="none" points="694.308,592.604 687.232,583.727  689.758,572.661 699.984,567.735 710.211,572.661 712.736,583.727 705.658,592.604 " stroke="#010101" stroke-miterlimit="10"/><polygon class=" hole" fill="none" points="650.068,569.167 650.068,579.861  662.723,580.171 663.294,570.334 " stroke="#010101" stroke-miterlimit="10"/><polygon class=" hole" fill="none" points="198.394,558.627 168.314,587.999  181.798,611.858 204.229,618.775 210.326,608.747 236,610.562 240.148,569.324 " stroke="#010101" stroke-miterlimit="10"/></g><g transform="translate(702.401 -644.789) rotate(90.0)"/><g transform="translate(750.6349999 -578.3120001) rotate(90.0)"/><g transform="translate(-427.00999999999993 644.643) rotate(270.0)"><polygon class=" hole" fill="none" points="759.315,529.301 775.721,500.886  792.128,529.301 " stroke="#010101" stroke-miterlimit="10"/></g><g transform="translate(-736.104 -287.6190001) rotate(0.0)"/><g transform="translate(-1047.488 -109.49399999999997) rotate(0.0)"><polygon fill="none" points="647.399,599.509 651.749,602.988  629.84,606.702 629.84,588.419 " stroke="#010101" stroke-miterlimit="10"/></g><g transform="translate(711.965 -162.29100000000005) rotate(90.0)"><polygon class=" hole" fill="none" points="162.637,558.94 155.559,550.062  158.087,538.998 168.314,534.071 178.537,538.998 181.066,550.062 173.985,558.94 " stroke="#010101" stroke-miterlimit="10"/><polygon class=" hole" fill="none" points="118.398,535.503 118.398,546.203  131.049,546.508 131.624,536.67 " stroke="#010101" stroke-miterlimit="10"/></g><g transform="translate(-1056.186 36.05500000000001) rotate(0.0)"><polygon class=" hole" fill="none" points="1000.963,425.818 1000.963,436.516  1014.189,436.261 1014.189,426.985 " stroke="#010101" stroke-miterlimit="10"/></g><g transform="translate(-671.4269999999999 1137.2140000000002) rotate(270.0)"><polygon fill="none" points="514.852,749.664 507.777,740.787  510.303,729.722 520.529,724.796 530.756,729.722 533.281,740.787 526.203,749.664 " stroke="#010101" stroke-miterlimit="10"/></g><g transform="translate(731.5570000000001 1135.6009999999999) rotate(180.0)"><path class=" hole" d="M755.008,7.685h6.778v54.688h-6.778V7.685z" fill="none" stroke="#010101"/></g><g transform="translate(673.615 -603.263) rotate(90.0)"><polygon fill="none" points="833.748,849.15 835.197,855.829  816.191,856.346 816.191,838.061 " stroke="#010101" stroke-miterlimit="10"/></g><g transform="translate(613.5839999000001 1226.0859999) rotate(180.0)"><polygon class=" hole" fill="none" points="725.651,284.26 718.574,275.383  721.104,264.317 731.329,259.392 741.552,264.317 744.081,275.383 737,284.26 " stroke="#010101" stroke-miterlimit="10"/><polygon class=" hole" fill="none" points="681.412,260.823 681.412,271.524  694.064,271.827 694.639,261.99 " stroke="#010101" stroke-miterlimit="10"/></g><g transform="translate(209.71599999999995 -395.33299999999997) rotate(90.0)"><polygon class=" hole" fill="none" points="258.047,541.004 248.963,587.023  315.438,593.704 331.431,564.875 " stroke="#010101" stroke-miterlimit="10"/><polygon class=" hole" fill="none" points="145.239,571.488 136.693,573.065  131.049,566.452 133.958,558.263 142.5,556.682 148.14,563.295 " stroke="#010101" stroke-miterlimit="10"/><polygon class=" hole" fill="none" points="41.294,558.627 41.294,569.324  54.52,569.069 54.52,559.794 " stroke="#010101" stroke-miterlimit="10"/></g><g transform="translate(-247.4999999999999 923.018) rotate(270.0)"><polygon fill="none" points="504.59,600.795 508.941,604.275  487.033,607.995 487.033,589.712 " stroke="#010101" stroke-miterlimit="10"/></g><g transform="translate(1012.3790000000001 666.8699999999999) rotate(180.0)"><polygon fill="none" points="1028.399,597.303 1032.749,600.782  1010.84,604.496 1010.84,586.213 " stroke="#010101" stroke-miterlimit="10"/><polygon class=" hole" fill="none" points="68.135,594.612 59.589,596.189  53.949,589.576 56.854,581.387 65.4,579.81 71.037,586.422 " stroke="#010101" stroke-miterlimit="10"/><polygon class=" hole" fill="none" points="440.508,585.085 440.508,595.782  453.734,595.527 453.734,586.252 " stroke="#010101" stroke-miterlimit="10"/></g><g transform="translate(-664.7939999999998 1268.1330000000003) rotate(270.0)"><polygon fill="none" points="1075.308,590.397 1068.232,581.521  1070.758,570.455 1080.984,565.529 1091.211,570.455 1093.736,581.521 1086.658,590.397 " stroke="#010101" stroke-miterlimit="10"/></g><g transform="translate(-824.023 -403.249) rotate(0.0)"><polygon class=" hole" fill="none" points="582.528,372.964 624.57,373.468  631.906,347.062 620.936,326.309 609.533,329.092 592.663,309.654 560.571,335.878 " stroke="#010101" stroke-miterlimit="10"/></g><g transform="translate(-410.40099999999984 1166.8680000000002) rotate(270.0)"><rect fill="none" height="25.868" stroke="#010101" width="47.904" x="1071.43" y="618.179"/></g><g transform="translate(-599.735 -215.66899999999998) rotate(0.0)"><polygon fill="none" points="617.292,458.369 618.742,465.049  599.735,465.566 599.735,447.28 " stroke="#010101" stroke-miterlimit="10"/><rect class=" hole" fill="none" height="5.188" stroke="#010101" width="29.563" x="106.758" y="452.881"/><rect class=" hole" fill="none" height="18.155" stroke="#010101" width="30.913" x="21.066" y="439.913"/><rect class=" hole" fill="none" height="5.188" stroke="#010101" width="29.564" x="487.758" y="450.675"/><rect class=" hole" fill="none" height="18.155" stroke="#010101" width="30.912" x="402.066" y="437.707"/><rect class=" hole" fill="none" height="25.868" stroke="#010101" width="47.904" x="338.931" y="427.01"/></g><g transform="translate(1026.906 653.7049999999999) rotate(180.0)"><polygon fill="none" points="998.292,456.163 999.742,462.843  980.735,463.359 980.735,445.074 " stroke="#010101" stroke-miterlimit="10"/><polygon class=" hole" fill="none" points="646.805,464.01 638.259,465.587  632.618,458.974 635.523,450.784 644.069,449.207 649.706,455.819 " stroke="#010101" stroke-miterlimit="10"/></g><g transform="translate(679.576 -720.844) rotate(90.0)"><polygon fill="none" points="675.73,930.516 680.082,933.995  658.174,937.715 658.174,919.432 " stroke="#010101" stroke-miterlimit="10"/><polygon class=" hole" fill="none" points="601.297,923.298 601.297,933.995  614.523,933.739 614.523,924.465 " stroke="#010101" stroke-miterlimit="10"/><polygon class=" hole" fill="none" points="563.383,919.432 559.621,926.865  550.156,929.546 550.156,937.715 559.621,940.869 563.383,946.966 571.941,946.966 575.18,942.553 581.07,937.736 581.07,929.546  575.18,926.087 570.123,919.432 " stroke="#010101" stroke-miterlimit="10"/></g><g transform="translate(-500.8859999999999 792.1280000000002) rotate(270.0)"><polygon class=" hole" fill="none" points="38.623,588.972 40.072,595.651  21.066,596.168 21.066,577.883 " stroke="#010101" stroke-miterlimit="10"/></g><g transform="translate(306.33399999999995 -561.2139999999999) rotate(90.0)"><polygon class=" hole" fill="none" points="196.401,495.929 224.016,523.938 348.972,517.196 271.061,492.297 227.967,473.625 " stroke="#010101"/></g><g transform="translate(-1047.101 124.70400000000001) rotate(0.0)"><polygon fill="none" points="1047.589,474.228 1045.255,501.351  1062.632,503.427 1075.857,497.71 1073.262,480.864 " stroke="#010101" stroke-miterlimit="10"/><rect class=" hole" fill="none" height="17.633" stroke="#010101" width="17.004" x="262.876" y="458.068"/></g><g transform="translate(853.8819998999999 -787.322) rotate(90.0)"><polygon class=" hole" fill="none" points="916.535,156.33 916.535,167.03  929.188,167.335 929.761,157.497 " stroke="#010101" stroke-miterlimit="10"/></g><g transform="translate(-687.32 -354.865) rotate(0.0)"><polygon class=" hole" fill="none" points="676.909,605.146 668.363,606.727  662.723,600.113 665.628,591.92 674.174,590.346 679.814,596.959 " stroke="#010101" stroke-miterlimit="10"/></g><g transform="translate(280.73099999999994 -978.783) rotate(90.0)"><polygon fill="none" points="1065.045,441.528 1069.396,445.009  1047.488,448.729 1047.488,430.445 " stroke="#010101" stroke-miterlimit="10"/><polygon class=" hole" fill="none" points="777.062,428.025 746.983,457.397  760.468,481.256 782.898,488.173 788.995,478.145 814.669,479.959 818.817,438.722 " stroke="#010101" stroke-miterlimit="10"/><polygon class=" hole" fill="none" points="723.908,440.886 715.362,442.463  709.719,435.85 712.627,427.66 721.17,426.079 726.81,432.692 " stroke="#010101" stroke-miterlimit="10"/><polygon class=" hole" fill="none" points="619.963,428.025 619.963,438.722  633.189,438.467 633.189,429.192 " stroke="#010101" stroke-miterlimit="10"/><polygon class=" hole" fill="none" points="836.717,410.401 827.633,456.421  894.106,463.102 910.101,434.273 " stroke="#010101" stroke-miterlimit="10"/></g><g transform="translate(1119.334 644.0469999999999) rotate(180.0)"><polygon class=" hole" fill="none" points="1031.068,566.961 1031.068,577.655  1043.723,577.965 1044.294,568.128 " stroke="#010101" stroke-miterlimit="10"/></g><g transform="translate(-773.187 276.862) rotate(0.0)"><polygon fill="none" points="836.76,209.799 838.209,216.479  819.203,216.995 819.203,198.71 " stroke="#010101" stroke-miterlimit="10"/></g><g transform="translate(552.6979999999999 -722.745) rotate(90.0)"><polygon fill="none" points="883.785,550.194 875.24,551.771  869.597,545.158 872.505,536.968 881.048,535.388 886.688,542.001 " stroke="#010101" stroke-miterlimit="10"/></g><g transform="translate(-25.09199999999982 1294.748) rotate(270.0)"><polygon fill="none" points="866.271,215.44 857.727,217.017  852.086,210.403 854.991,202.214 863.537,200.637 869.174,207.249 " stroke="#010101" stroke-miterlimit="10"/></g><g transform="translate(761.786 346.91999999999996) rotate(180.0)"><polygon class=" hole" fill="none" points="943.376,192.316 934.83,193.893  929.188,187.279 932.095,179.09 940.638,177.509 946.277,184.122 " stroke="#010101" stroke-miterlimit="10"/><polygon class=" hole" fill="none" points="661.185,157.016 652.101,203.035  718.574,209.716 734.568,180.887 " stroke="#010101" stroke-miterlimit="10"/><polygon class=" hole" fill="none" points="839.432,179.454 839.432,190.151  852.657,189.897 852.657,180.621 " stroke="#010101" stroke-miterlimit="10"/></g><g transform="translate(-618.1789999999997 1377.141) rotate(270.0)"><polygon class=" hole" fill="none" points="565.774,174.952 558.696,166.075  561.225,155.01 571.451,150.083 581.674,155.01 584.203,166.075 577.122,174.952 " stroke="#010101" stroke-miterlimit="10"/></g></svg>